<svg xmlns="http://www.w3.org/2000/svg" width="85" height="85" viewBox="0 0 85 85">
    <defs>
        <clipPath id="clip-path">
            <path id="사각형_811" d="M0 0H85V85H0z" class="cls-1" transform="translate(7409 1434)"/>
        </clipPath>
        <style>
            .cls-1{fill:#fff}
        </style>
    </defs>
    <g id="icon_g_04" clip-path="url(#clip-path)" transform="translate(-7409 -1434)">
        <g id="그룹_1999" transform="translate(7414 1439)">
            <g id="그룹_1994" transform="translate(22.971 10.516)">
                <g id="그룹_1992" transform="translate(0 40.527)">
                    <path id="패스_461" d="M846.1 355.646a6.987 6.987 0 1 1 6.989-6.987 7 7 0 0 1-6.989 6.987zm0-9.316a2.329 2.329 0 1 0 2.33 2.329 2.333 2.333 0 0 0-2.33-2.33z" class="cls-1" transform="translate(-839.107 -341.671)"/>
                </g>
                <g id="그룹_1993">
                    <path id="패스_462" d="M846.1 288.046a6.987 6.987 0 1 1 6.989-6.988 7 7 0 0 1-6.989 6.988zm0-9.317a2.329 2.329 0 1 0 2.33 2.329 2.332 2.332 0 0 0-2.33-2.329z" class="cls-1" transform="translate(-839.107 -274.071)"/>
                </g>
            </g>
            <g id="그룹_1997" transform="translate(9.983 29.605)">
                <g id="그룹_1995" transform="translate(35.571 12.148)">
                    <path id="패스_463" d="M883.7 340.132a6.987 6.987 0 1 1 6.989-6.987 7 7 0 0 1-6.989 6.987zm0-9.316a2.329 2.329 0 1 0 2.329 2.329 2.333 2.333 0 0 0-2.329-2.33z" class="cls-1" transform="translate(-876.712 -326.157)"/>
                </g>
                <g id="그룹_1996">
                    <path id="패스_464" d="M824.467 319.9a6.987 6.987 0 1 1 6.989-6.988 7 7 0 0 1-6.989 6.988zm0-9.316a2.329 2.329 0 1 0 2.33 2.329 2.332 2.332 0 0 0-2.33-2.327z" class="cls-1" transform="translate(-817.478 -305.928)"/>
                </g>
            </g>
            <g id="그룹_1998">
                <path id="패스_465" d="M838.154 331.023q-.95 0-1.907-.047a37.491 37.491 0 0 1-35.357-35.55 37.235 37.235 0 0 1 37.24-38.868 37.637 37.637 0 0 1 7.292.712 9.333 9.333 0 0 1 7.2 6.554 9.69 9.69 0 0 1-2.414 9.695l-1.51 1.508a7.192 7.192 0 0 0 5.065 12.271h.013a7.165 7.165 0 0 0 5.094-2.111 9.647 9.647 0 0 1 10.3-2.211 9.311 9.311 0 0 1 6.135 8.118q.1 1.333.1 2.7a37.268 37.268 0 0 1-37.252 37.233zm-.024-69.81a32.581 32.581 0 0 0-32.585 34.014 32.8 32.8 0 0 0 30.933 31.1 32.611 32.611 0 0 0 34.269-32.537q0-1.191-.085-2.362a4.645 4.645 0 0 0-3.115-4.091 5.049 5.049 0 0 0-5.381 1.142 11.791 11.791 0 0 1-8.388 3.474h-.02a11.835 11.835 0 0 1-8.352-20.215l1.51-1.508a4.986 4.986 0 0 0 1.25-5.053 4.745 4.745 0 0 0-3.651-3.341 32.98 32.98 0 0 0-6.385-.623z" class="cls-1" transform="translate(-800.855 -256.559)"/>
            </g>
        </g>
    </g>
</svg>
