<svg xmlns="http://www.w3.org/2000/svg" width="16" height="16" viewBox="0 0 16 16">
    <defs>
        <clipPath id="3xwgf7up9a">
            <path fill="none" d="M0 0H16V16H0z" opacity="0.28" transform="translate(-3036 6090)"/>
        </clipPath>
    </defs>
    <g clip-path="url(#3xwgf7up9a)" transform="translate(3036 -6090)">
        <path fill="none" stroke="#fff" stroke-linejoin="round" d="M762.179 621.31a5.478 5.478 0 0 0-.164-1.309l1.666-1.213-1.308-2.265-1.883.836a5.474 5.474 0 0 0-2.268-1.311L758 614h-2.616l-.218 2.047a5.475 5.475 0 0 0-2.268 1.311l-1.883-.836-1.308 2.265 1.671 1.213a5.305 5.305 0 0 0 0 2.618l-1.666 1.213 1.308 2.265 1.883-.836a5.474 5.474 0 0 0 2.268 1.311l.218 2.047H758l.217-2.047a5.473 5.473 0 0 0 2.268-1.311l1.883.836 1.308-2.265-1.666-1.213a5.478 5.478 0 0 0 .169-1.308zm-5.483 2.741a2.741 2.741 0 1 1 2.741-2.741 2.741 2.741 0 0 1-2.737 2.741z" transform="translate(-3784.212 5476.5)"/>
    </g>
</svg>
