<svg xmlns="http://www.w3.org/2000/svg" width="105" height="112" viewBox="0 0 105 112">
    <defs>
        <style>
            .cls-2{fill:#1a1311}.cls-5{fill:#070304}
        </style>
    </defs>
    <g id="icon_listno" transform="translate(-119 -314)">
        <ellipse id="타원_453" cx="52" cy="15" fill="#111" opacity="0.2" rx="52" ry="15" transform="translate(119 396)"/>
        <g id="그룹_9229" transform="translate(-524.901 199.873)">
            <path id="패스_32939" d="M647.813 206.236a2.912 2.912 0 0 1-2.781-3.775l6.9-22.212a2.911 2.911 0 0 1 5.56 1.727l-6.9 22.212a2.913 2.913 0 0 1-2.779 2.048z" class="cls-2" transform="translate(0 -11.442)"/>
            <g id="그룹_9226" transform="translate(649.485 114.127)">
                <path id="패스_32940" fill="#fff" d="M741.151 158.3c6.751-7.2-11.249-27.958-11.249-27.958-14.428-16.461-41.042-13.065-41.042-13.065-22.993 1.9-33.917 29.074-33.917 29.074-3.823 8.559.255 12.38.255 12.38l.96.875 70.307 2.1z" transform="translate(-650.986 -114.638)"/>
                <path id="패스_32941" d="M725.961 163.528h-.069l-70.306-2.1a2.328 2.328 0 0 1-1.5-.606l-.961-.875c-.24-.225-5.261-5.092-.812-15.05.433-1.083 11.7-28.447 35.85-30.445 1.036-.132 27.913-3.345 42.985 13.851 3.244 3.741 18.988 22.777 11.2 31.085a2.328 2.328 0 0 1-1.172.675l-14.686 3.408a2.315 2.315 0 0 1-.529.057zm-69.378-6.728l69.146 2.068 13.59-3.154c2.67-4.4-5.047-16.692-11.681-24.352-13.412-15.3-38.735-12.312-38.989-12.28-21.364 1.769-31.946 27.375-32.05 27.633-3.055 6.842-.388 9.731-.273 9.851zm84.063 1z" class="cls-2" transform="translate(-650.482 -114.127)"/>
            </g>
            <g id="그룹_9227" transform="translate(649.832 155.446)">
                <path id="패스_32942" fill="#c52321" d="M655.485 168.662s27.584.488 71.058 2.026l14.685-3.408s1.946-.435 1.178 3.241c0 0-1.614 22.395-1.135 37.946 0 0 .589 3.966-1.189 5.39l-12.9 9.63-70.857-2.146s-3.478-.52-2.3-5.582l1.005-40.2s-.416-2.6-1.133-3.364c.003-.005-.907-3.356 1.588-3.533z" transform="translate(-651.41 -164.934)"/>
                <path id="패스_32943" d="M726.678 225.308h-.071l-70.857-2.146a2.359 2.359 0 0 1-.274-.025 5.348 5.348 0 0 1-3.485-2.275 7.423 7.423 0 0 1-.791-5.894l.994-39.752a9.065 9.065 0 0 0-.568-2.017 2.328 2.328 0 0 1-.479-.9 6.12 6.12 0 0 1 .589-4.8 4.033 4.033 0 0 1 3.079-1.662c.068 0 .137-.006.205-.006.275.006 27.97.5 70.791 2.017l14.385-3.339a3.358 3.358 0 0 1 3.073.885c1.548 1.528 1.143 3.955.942 4.944-.139 1.987-1.561 22.848-1.122 37.43.151 1.151.505 5.353-2.058 7.4l-12.961 9.677a2.322 2.322 0 0 1-1.392.463zm-70.518-6.793l69.777 2.114 12.247-9.143a5.909 5.909 0 0 0 .277-3.189 2.6 2.6 0 0 1-.022-.264c-.478-15.493 1.123-37.96 1.139-38.185a2.6 2.6 0 0 1 .043-.31c.009-.044.018-.084.025-.125l-13.082 3.036a2.282 2.282 0 0 1-.608.059c-39.4-1.395-66.045-1.93-70.392-2.013 0 .085.011.173.021.262a11.875 11.875 0 0 1 1.24 3.923 2.372 2.372 0 0 1 .028.425l-1 40.206a2.327 2.327 0 0 1-.059.47c-.274 1.154-.309 2.447.366 2.734zm-4.46-45.235z" class="cls-2" transform="translate(-650.904 -164.428)"/>
            </g>
            <path id="패스_32944" d="M741.578 215.737h-.053a1.744 1.744 0 0 1-1.692-1.8l1.005-33.634a1.709 1.709 0 0 1 1.8-1.693 1.745 1.745 0 0 1 1.693 1.8l-1.006 33.634a1.746 1.746 0 0 1-1.747 1.693z" class="cls-5" transform="translate(-16.952 -11.514)"/>
            <path id="패스_32945" d="M739.965 158.688h-.053a1.745 1.745 0 0 1-1.693-1.793c.015-.623.213-15.348-14.707-25.481a1.747 1.747 0 1 1 1.962-2.89c16.556 11.244 16.256 27.773 16.235 28.471a1.746 1.746 0 0 1-1.744 1.693z" class="cls-5" transform="translate(-13.901 -2.517)"/>
            <path id="패스_32946" d="M760.443 208.377a2.91 2.91 0 0 1-2.729-1.9l-7.341-19.787a2.91 2.91 0 0 1 5.457-2.024l7.341 19.787a2.913 2.913 0 0 1-2.728 3.923z" class="cls-2" transform="translate(-18.801 -12.257)"/>
            <g id="그룹_9228" transform="translate(654.328 208.449)">
                <path id="패스_32947" d="M721.315 233.933a2.328 2.328 0 0 0-3.056-1.226l-10.6 4.53-10.8-6.846a2.2 2.2 0 0 0-.312-.131 2.563 2.563 0 0 0-2.534.4 2.33 2.33 0 0 0-.435 2.827l5.651 10.142a2.327 2.327 0 0 0 2.494 1.149c.038-.008.076-.025.114-.035a2.294 2.294 0 0 0 .336-.1l6.182-2.629c.03-.012.053-.034.081-.048l11.65-4.978a2.328 2.328 0 0 0 1.229-3.055z" class="cls-2" transform="translate(-662.968 -229.151)"/>
                <path id="패스_32948" d="M681.349 231.6l-10.6 4.529-10.8-6.846a2.6 2.6 0 0 0-2.846.274 2.328 2.328 0 0 0-.435 2.826l5.651 10.143a2.327 2.327 0 0 0 2.035 1.194 2.284 2.284 0 0 0 .458-.046c.039-.007.076-.025.114-.035a2.375 2.375 0 0 0 .337-.1l6.182-2.629c.03-.012.052-.034.081-.048l11.65-4.979a2.328 2.328 0 0 0-1.831-4.28z" class="cls-2" transform="translate(-656.377 -228.954)"/>
            </g>
            <path id="패스_32949" d="M710.934 159.239a7.556 7.556 0 0 1-5.3-2.174 1.746 1.746 0 0 1 2.509-2.428c.428.424 2.7 2.385 6.074-.172a1.746 1.746 0 0 1 2.11 2.782 8.855 8.855 0 0 1-5.393 1.992z" class="cls-2" transform="translate(-10.759 -7.14)"/>
            <path id="패스_32950" d="M676.017 158a7.647 7.647 0 0 1-5.364-2.268 1.746 1.746 0 0 1 2.523-2.414c.442.445 2.783 2.506 6.014-.139a1.746 1.746 0 1 1 2.212 2.7 8.416 8.416 0 0 1-5.385 2.121z" class="cls-2" transform="translate(-4.513 -6.903)"/>
        </g>
        <path id="사각형_3513" fill="none" d="M0 0H104V112H0z" transform="translate(120 314)"/>
    </g>
</svg>
