<svg xmlns="http://www.w3.org/2000/svg" width="85" height="85" viewBox="0 0 85 85">
    <defs>
        <clipPath id="clip-path">
            <path id="사각형_809" d="M0 0H85V85H0z" class="cls-1" transform="translate(7231 1434)"/>
        </clipPath>
        <style>
            .cls-1{fill:#fff}
        </style>
    </defs>
    <g id="icon_g_03" clip-path="url(#clip-path)" transform="translate(-7231 -1434)">
        <g id="그룹_1989" transform="translate(7242 1442)">
            <g id="그룹_1980" transform="translate(6.559 16.634)"/>
            <g id="그룹_1981" transform="translate(6.557)">
                <path id="패스_454" d="M324.07 326.215h-42.621a6.541 6.541 0 0 1-6.538-6.531V263.09a6.541 6.541 0 0 1 6.538-6.53h42.621a6.541 6.541 0 0 1 6.538 6.53v56.595a6.541 6.541 0 0 1-6.538 6.53zm-42.621-65.3a2.18 2.18 0 0 0-2.18 2.177v56.595a2.18 2.18 0 0 0 2.18 2.177h42.621a2.18 2.18 0 0 0 2.18-2.177V263.09a2.18 2.18 0 0 0-2.18-2.177z" class="cls-1" transform="translate(-274.911 -256.56)"/>
            </g>
            <g id="그룹_1982" transform="translate(22.608 12.007)">
                <path id="패스_455" d="M330.385 282.313h-24.721a2.179 2.179 0 1 1 0-4.357h24.721a2.179 2.179 0 1 1 0 4.357z" class="cls-1" transform="translate(-303.485 -277.956)"/>
            </g>
            <g id="그룹_1983" transform="translate(22.608 25.449)">
                <path id="패스_456" d="M330.385 306.265h-24.721a2.179 2.179 0 1 1 0-4.357h24.721a2.179 2.179 0 1 1 0 4.357z" class="cls-1" transform="translate(-303.485 -301.908)"/>
            </g>
            <g id="그룹_1984" transform="translate(22.608 38.892)">
                <path id="패스_457" d="M330.385 330.218h-24.721a2.179 2.179 0 1 1 0-4.357h24.721a2.179 2.179 0 1 1 0 4.357z" class="cls-1" transform="translate(-303.485 -325.861)"/>
            </g>
            <g id="그룹_1985" transform="translate(22.608 52.334)">
                <path id="패스_458" d="M317.31 354.171h-11.646a2.179 2.179 0 1 1 0-4.357h11.646a2.179 2.179 0 1 1 0 4.357z" class="cls-1" transform="translate(-303.485 -349.814)"/>
            </g>
            <g id="그룹_1988" transform="translate(0 12.496)">
                <g id="그룹_1986">
                    <path id="패스_459" d="M278.677 283.218h-13.259a2.179 2.179 0 1 1 0-4.357h13.259a2.179 2.179 0 1 1 0 4.357z" class="cls-1" transform="translate(-263.239 -278.861)"/>
                </g>
                <g id="그룹_1987" transform="translate(0 40.306)">
                    <path id="패스_460" d="M278.677 354.97h-13.259a2.179 2.179 0 1 1 0-4.357h13.259a2.179 2.179 0 1 1 0 4.357z" class="cls-1" transform="translate(-263.239 -350.613)"/>
                </g>
            </g>
        </g>
    </g>
</svg>
