<svg xmlns="http://www.w3.org/2000/svg" width="85" height="85" viewBox="0 0 85 85">
    <defs>
        <clipPath id="clip-path">
            <path id="사각형_802" d="M0 0H85V85H0z" class="cls-1" transform="translate(6918 1500)"/>
        </clipPath>
        <style>
            .cls-1{fill:#fff}
        </style>
    </defs>
    <g id="icon_g_01" clip-path="url(#clip-path)" transform="translate(-6918 -1500)">
        <g id="그룹_1958" transform="rotate(90 2743.819 4258.819)">
            <g id="그룹_1956" transform="translate(45.158 11.485)">
                <g id="그룹_1951" transform="translate(0 55.438)">
                    <path id="패스_439" d="M7.522 5.232H2.616a2.616 2.616 0 1 1 0-5.232h4.906a2.616 2.616 0 1 1 0 5.232z" class="cls-1"/>
                </g>
                <g id="그룹_1952" transform="translate(0 41.578)">
                    <path id="패스_440" d="M7.522 5.232H2.616a2.616 2.616 0 1 1 0-5.232h4.906a2.616 2.616 0 1 1 0 5.232z" class="cls-1"/>
                </g>
                <g id="그룹_1953" transform="translate(0 27.718)">
                    <path id="패스_441" d="M7.522 5.232H2.616a2.616 2.616 0 1 1 0-5.232h4.906a2.616 2.616 0 1 1 0 5.232z" class="cls-1"/>
                </g>
                <g id="그룹_1954" transform="translate(0 13.86)">
                    <path id="패스_442" d="M7.522 5.232H2.616a2.616 2.616 0 1 1 0-5.232h4.906a2.616 2.616 0 1 1 0 5.232z" class="cls-1"/>
                </g>
                <g id="그룹_1955">
                    <path id="패스_443" d="M7.522 5.232H2.616a2.616 2.616 0 1 1 0-5.232h4.906a2.616 2.616 0 1 1 0 5.232z" class="cls-1"/>
                </g>
            </g>
            <g id="그룹_1957">
                <path id="패스_444" d="M52.68 83.638H36.565a2.615 2.615 0 0 1-2.617-2.613V75.93a34.111 34.111 0 0 1 0-68.221V2.614A2.616 2.616 0 0 1 36.565 0H52.68a2.615 2.615 0 0 1 2.62 2.614v78.411a2.615 2.615 0 0 1-2.62 2.613zm-13.5-5.227h10.883V5.227H39.182v5.242a2.615 2.615 0 0 1-2.834 2.6l-.386-.033c-.594-.051-1.19-.106-1.8-.106a28.885 28.885 0 1 0 0 57.769c.608 0 1.2-.055 1.8-.106l.386-.034a2.616 2.616 0 0 1 2.834 2.605zm-5.018-18a18.588 18.588 0 1 1 0-37.176 17.975 17.975 0 0 1 2.8.237 2.616 2.616 0 0 1 2.214 2.583v31.528a2.615 2.615 0 0 1-2.209 2.582 17.754 17.754 0 0 1-2.803.242zm-.214-31.951a13.361 13.361 0 0 0 0 26.719z" class="cls-1"/>
            </g>
        </g>
    </g>
</svg>
