<svg xmlns="http://www.w3.org/2000/svg" width="15" height="15" viewBox="0 0 15 15">
    <defs>
        <clipPath id="clip-path">
            <path id="사각형_87" d="M0 0H15V15H0z" class="cls-1"/>
        </clipPath>
        <style>
            .cls-1{fill:#fff}
        </style>
    </defs>
    <g id="btn_logout" clip-path="url(#clip-path)">
        <g id="그룹_14" transform="translate(1 1)">
            <g id="그룹_12" transform="translate(0 1.696)">
                <path id="패스_42" d="M778.611 400.078a6.014 6.014 0 0 1 3.042-5.231.656.656 0 0 1 .9.245.657.657 0 0 1-.245.9 4.7 4.7 0 0 0-2.379 4.091 4.711 4.711 0 0 0 4.705 4.7 4.711 4.711 0 0 0 4.7-4.7 4.7 4.7 0 0 0-2.2-3.984.657.657 0 0 1-.205-.906.657.657 0 0 1 .905-.205 6.016 6.016 0 0 1 2.812 5.095 6.018 6.018 0 0 1-6.018 6.017 6.018 6.018 0 0 1-6.018-6.017z" class="cls-1" transform="translate(-778.611 -394.76)"/>
            </g>
            <g id="그룹_13" transform="translate(5.362)">
                <path id="패스_43" d="M814.348 389.349v-5.236a.656.656 0 0 1 .656-.657.657.657 0 0 1 .657.657v5.236a.657.657 0 0 1-.657.656.656.656 0 0 1-.656-.656z" class="cls-1" transform="translate(-814.348 -383.456)"/>
            </g>
        </g>
    </g>
</svg>
