<svg xmlns="http://www.w3.org/2000/svg" width="127" height="127" viewBox="0 0 127 127">
    <defs>
        <clipPath id="clip-path">
            <path id="사각형_784" fill="#fff" stroke="#707070" d="M0 0H127V127H0z" transform="translate(470 250)"/>
        </clipPath>
        <style>
            .cls-3{fill:#94c759;stroke:#94c759;stroke-width:.8px}
        </style>
    </defs>
    <g id="icon_power" clip-path="url(#clip-path)" opacity="0.35" transform="translate(-470 -250)">
        <g id="그룹_1794" transform="rotate(-63 550.858 -173.868)">
            <g id="그룹_253">
                <path id="패스_238" d="M104.933 79.777H5.7a5.709 5.709 0 0 1-5.7-5.7V5.7A5.709 5.709 0 0 1 5.7 0h99.231a5.709 5.709 0 0 1 5.7 5.7v68.375a5.709 5.709 0 0 1-5.698 5.702zM5.7 4.387A1.334 1.334 0 0 0 4.387 5.7v68.375A1.335 1.335 0 0 0 5.7 75.391h99.231a1.335 1.335 0 0 0 1.316-1.316V5.7a1.334 1.334 0 0 0-1.316-1.316z" class="cls-3"/>
            </g>
            <g id="그룹_254" transform="translate(72.989 10.172)">
                <path id="패스_239" d="M21.781 59.433H5.7a5.709 5.709 0 0 1-5.7-5.7V5.7A5.709 5.709 0 0 1 5.7 0h16.081a5.709 5.709 0 0 1 5.7 5.7v48.031a5.709 5.709 0 0 1-5.7 5.702zM5.7 4.387A1.333 1.333 0 0 0 4.387 5.7v48.031A1.333 1.333 0 0 0 5.7 55.047h16.081a1.334 1.334 0 0 0 1.319-1.316V5.7a1.334 1.334 0 0 0-1.316-1.316z" class="cls-3"/>
            </g>
            <g id="그룹_255" transform="translate(106.249 21.307)">
                <path id="패스_240" d="M10.233 37.161H5.7a5.709 5.709 0 0 1-5.7-5.7V5.7A5.709 5.709 0 0 1 5.7 0h4.531a5.709 5.709 0 0 1 5.7 5.7v25.758a5.709 5.709 0 0 1-5.698 5.703zM5.7 4.387A1.334 1.334 0 0 0 4.387 5.7v25.758A1.333 1.333 0 0 0 5.7 32.774h4.531a1.334 1.334 0 0 0 1.316-1.316V5.7a1.335 1.335 0 0 0-1.316-1.316z" class="cls-3"/>
            </g>
            <g id="그룹_262" transform="translate(41.575 10.172)">
                <g id="그룹_256">
                    <path id="패스_241" d="M21.781 59.433H5.7a5.709 5.709 0 0 1-5.7-5.7V5.7A5.709 5.709 0 0 1 5.7 0h16.081a5.709 5.709 0 0 1 5.7 5.7v48.031a5.709 5.709 0 0 1-5.7 5.702zM5.7 4.387A1.334 1.334 0 0 0 4.387 5.7v48.031A1.334 1.334 0 0 0 5.7 55.047h16.081a1.333 1.333 0 0 0 1.319-1.316V5.7a1.333 1.333 0 0 0-1.316-1.316z" class="cls-3"/>
                </g>
                <g id="그룹_257" transform="translate(.617 .518)">
                    <path id="패스_242" d="M2.194 16.308a2.194 2.194 0 0 1-1.56-3.738L12.436.649a2.194 2.194 0 0 1 3.118 3.087L3.752 15.657a2.187 2.187 0 0 1-1.558.651z" class="cls-3"/>
                </g>
                <g id="그룹_258" transform="translate(10.61 42.222)">
                    <path id="패스_243" d="M2.194 16.307a2.193 2.193 0 0 1-1.56-3.736L12.436.65a2.194 2.194 0 1 1 3.118 3.087l-11.8 11.921a2.189 2.189 0 0 1-1.56.649z" class="cls-3"/>
                </g>
                <g id="그룹_259" transform="translate(.618 3.776)">
                    <path id="패스_244" d="M2.193 25.684a2.193 2.193 0 0 1-1.565-3.73L21.544.655a2.193 2.193 0 1 1 3.129 3.074L3.757 25.028a2.184 2.184 0 0 1-1.564.656z" class="cls-3"/>
                </g>
                <g id="그룹_260" transform="translate(.001 15.539)">
                    <path id="패스_245" d="M2.193 28.228A2.192 2.192 0 0 1 .619 24.51L23.716.667a2.193 2.193 0 1 1 3.15 3.051L3.768 27.562a2.188 2.188 0 0 1-1.575.666z" class="cls-3"/>
                </g>
                <g id="그룹_261" transform="translate(1.565 28.532)">
                    <path id="패스_246" d="M2.194 27.341a2.194 2.194 0 0 1-1.6-3.7L22.125.692a2.194 2.194 0 0 1 3.2 3L3.794 26.648a2.191 2.191 0 0 1-1.6.693z" class="cls-3"/>
                </g>
            </g>
            <g id="그룹_269" transform="translate(10.163 10.172)">
                <g id="그룹_263">
                    <path id="패스_247" d="M21.781 59.433H5.7a5.709 5.709 0 0 1-5.7-5.7V5.7A5.709 5.709 0 0 1 5.7 0h16.081a5.709 5.709 0 0 1 5.7 5.7v48.031a5.709 5.709 0 0 1-5.7 5.702zM5.7 4.387A1.334 1.334 0 0 0 4.387 5.7v48.031A1.334 1.334 0 0 0 5.7 55.047h16.081a1.334 1.334 0 0 0 1.319-1.316V5.7a1.334 1.334 0 0 0-1.316-1.316z" class="cls-3"/>
                </g>
                <g id="그룹_264" transform="translate(.616 .518)">
                    <path id="패스_248" d="M2.193 16.308a2.194 2.194 0 0 1-1.558-3.737L12.435.649a2.194 2.194 0 0 1 3.12 3.087L3.753 15.657a2.188 2.188 0 0 1-1.56.651z" class="cls-3"/>
                </g>
                <g id="그룹_265" transform="translate(10.61 42.222)">
                    <path id="패스_249" d="M2.194 16.307a2.193 2.193 0 0 1-1.56-3.736L12.436.65a2.194 2.194 0 0 1 3.118 3.087L3.752 15.658a2.185 2.185 0 0 1-1.558.649z" class="cls-3"/>
                </g>
                <g id="그룹_266" transform="translate(.616 3.776)">
                    <path id="패스_250" d="M2.193 25.684a2.193 2.193 0 0 1-1.563-3.73L21.546.655a2.193 2.193 0 1 1 3.128 3.074L3.758 25.028a2.185 2.185 0 0 1-1.565.656z" class="cls-3"/>
                </g>
                <g id="그룹_267" transform="translate(0 15.539)">
                    <path id="패스_251" d="M2.193 28.228A2.193 2.193 0 0 1 .617 24.51L23.714.667a2.193 2.193 0 1 1 3.15 3.051L3.767 27.562a2.184 2.184 0 0 1-1.574.666z" class="cls-3"/>
                </g>
                <g id="그룹_268" transform="translate(1.564 28.532)">
                    <path id="패스_252" d="M2.192 27.341a2.2 2.2 0 0 1-1.6-3.7L22.126.692a2.194 2.194 0 0 1 3.2 3L3.794 26.648a2.2 2.2 0 0 1-1.602.693z" class="cls-3"/>
                </g>
            </g>
        </g>
    </g>
</svg>
