<svg xmlns="http://www.w3.org/2000/svg" width="127" height="127" viewBox="0 0 127 127">
    <defs>
        <clipPath id="clip-path">
            <path id="사각형_786" fill="#fff" stroke="#707070" d="M0 0H127V127H0z" transform="translate(1403 250)"/>
        </clipPath>
        <style>
            .cls-3{fill:#3b74e7;stroke:#3b74e7;stroke-width:1.2px}
        </style>
    </defs>
    <g id="icon_Insolation" clip-path="url(#clip-path)" opacity="0.35" transform="translate(-1403 -250)">
        <g id="그룹_1793" transform="rotate(9 -963.555 9106.554)">
            <g id="그룹_232" transform="translate(24.975 24.976)">
                <path id="패스_220" d="M885.163 591.133a38.478 38.478 0 1 1 38.477-38.48 38.523 38.523 0 0 1-38.477 38.48zm0-72.568a34.091 34.091 0 1 0 34.09 34.088 34.128 34.128 0 0 0-34.09-34.088z" class="cls-3" transform="translate(-846.684 -514.178)"/>
            </g>
            <g id="그룹_233" transform="translate(61.26 110.301)">
                <path id="패스_221" d="M869.556 579.41a2.194 2.194 0 0 1-2.193-2.193V565a2.193 2.193 0 1 1 4.387 0v12.218a2.193 2.193 0 0 1-2.194 2.192z" class="cls-3" transform="translate(-867.363 -562.805)"/>
            </g>
            <g id="그룹_234" transform="translate(61.26)">
                <path id="패스_222" d="M869.556 516.549a2.194 2.194 0 0 1-2.193-2.193v-12.219a2.193 2.193 0 1 1 4.387 0v12.218a2.193 2.193 0 0 1-2.194 2.194z" class="cls-3" transform="translate(-867.363 -499.944)"/>
            </g>
            <g id="그룹_235" transform="translate(0 61.258)">
                <path id="패스_223" d="M846.866 539.242h-12.222a2.193 2.193 0 1 1 0-4.387h12.222a2.193 2.193 0 1 1 0 4.387z" class="cls-3" transform="translate(-832.451 -534.855)"/>
            </g>
            <g id="그룹_236" transform="translate(110.299 61.258)">
                <path id="패스_224" d="M909.725 539.242H897.5a2.193 2.193 0 1 1 0-4.387h12.222a2.193 2.193 0 1 1 0 4.387z" class="cls-3" transform="translate(-895.31 -534.855)"/>
            </g>
            <g id="그룹_237" transform="translate(17.942 17.944)">
                <path id="패스_225" d="M853.506 523.193a2.184 2.184 0 0 1-1.551-.642l-8.637-8.637a2.193 2.193 0 0 1 3.1-3.1l8.635 8.635a2.193 2.193 0 0 1-1.549 3.744z" class="cls-3" transform="translate(-842.676 -510.17)"/>
            </g>
            <g id="그룹_238" transform="translate(95.936 95.937)">
                <path id="패스_226" d="M897.958 567.646a2.184 2.184 0 0 1-1.551-.642l-8.64-8.64a2.194 2.194 0 0 1 3.1-3.1l8.64 8.64a2.193 2.193 0 0 1-1.551 3.745z" class="cls-3" transform="translate(-887.125 -554.619)"/>
            </g>
            <g id="그룹_239" transform="translate(95.936 17.944)">
                <path id="패스_227" d="M889.318 523.2a2.193 2.193 0 0 1-1.551-3.744l8.64-8.638a2.193 2.193 0 0 1 3.1 3.1l-8.64 8.64a2.187 2.187 0 0 1-1.549.642z" class="cls-3" transform="translate(-887.125 -510.17)"/>
            </g>
            <g id="그룹_240" transform="translate(17.942 95.934)">
                <path id="패스_228" d="M844.869 567.647a2.193 2.193 0 0 1-1.551-3.745l8.64-8.644a2.193 2.193 0 0 1 3.1 3.1l-8.638 8.644a2.189 2.189 0 0 1-1.551.645z" class="cls-3" transform="translate(-842.676 -554.617)"/>
            </g>
        </g>
    </g>
</svg>
